<?xml version="1.0" encoding="UTF-8"?>
<svg xmlns="http://www.w3.org/2000/svg" width="720" height="400" viewBox="0 0 720 400">
  <style>
    text { font-family: Arial, Helvetica, sans-serif; font-size: 11px; fill: #000; }
    .box { fill: #fff; stroke: #000; stroke-width: 1.5; }
    .title { font-size: 14px; font-weight: bold; }
    .arrow { stroke: #000; stroke-width: 1.2; fill: none; marker-end: url(#arr); }
  </style>
  <defs>
    <marker id="arr" markerWidth="8" markerHeight="8" refX="6" refY="3" orient="auto">
      <path d="M0,0 L6,3 L0,6 Z" fill="#000"/>
    </marker>
  </defs>
  <text x="20" y="24" class="title">FIG. 4 — GIV Permission Envelope</text>
  <rect x="40" y="50" width="320" height="300" class="box"/>
  <text x="55" y="72" font-weight="bold">GIV Permission Envelope 112</text>
  <text x="55" y="100">worker_id ........................ 400</text>
  <text x="55" y="125">allowed_paths .................... 402</text>
  <text x="55" y="150">denied_paths ..................... 403</text>
  <text x="55" y="175">sibling_denied_paths ............. 405</text>
  <text x="55" y="200">denied_commands ................ 406</text>
  <text x="55" y="225">structural_tokens ................ 408</text>
  <text x="55" y="255">  SCOPE_STRICT</text>
  <text x="55" y="270">  NO_SIBLING_TRESPASS</text>
  <text x="55" y="285">  HANDOFF_ONLY</text>
  <text x="55" y="310">invariants ....................... 410</text>
  <rect x="420" y="120" width="180" height="50" class="box"/>
  <text x="432" y="142">Isolation Substrate</text>
  <text x="432" y="158" font-size="9">414</text>
  <rect x="420" y="220" width="200" height="50" class="box"/>
  <text x="432" y="242">GIV Trespass Classifier</text>
  <text x="432" y="258" font-size="9">602 (merge-time)</text>
  <line x1="360" y1="200" x2="420" y2="145" class="arrow"/>
  <line x1="510" y1="170" x2="510" y2="220" class="arrow"/>
</svg>