<?xml version="1.0" encoding="UTF-8"?>
<svg xmlns="http://www.w3.org/2000/svg" width="900" height="520" viewBox="0 0 900 520">
  <style>
    text { font-family: Arial, Helvetica, sans-serif; font-size: 11px; fill: #000; }
    .box { fill: #fff; stroke: #000; stroke-width: 1.5; }
    .title { font-size: 14px; font-weight: bold; }
    .arrow { stroke: #000; stroke-width: 1.2; fill: none; marker-end: url(#arr); }
  </style>
  <defs>
    <marker id="arr" markerWidth="8" markerHeight="8" refX="6" refY="3" orient="auto">
      <path d="M0,0 L6,3 L0,6 Z" fill="#000"/>
    </marker>
  </defs>
  <text x="20" y="24" class="title">FIG. 1 — Deployment Loop (System 100)</text>
  <rect x="20" y="40" width="860" height="460" class="box"/>
  <rect x="60" y="70" width="130" height="36" class="box"/>
  <text x="72" y="92">Target Codebase</text>
  <text x="72" y="104" font-size="9">100</text>
  <rect x="240" y="70" width="130" height="36" class="box"/>
  <text x="248" y="92">Intake Scanner</text>
  <text x="248" y="104" font-size="9">102</text>
  <rect x="420" y="70" width="160" height="36" class="box"/>
  <text x="428" y="88">Interaction Graph</text>
  <text x="428" y="100">G = (V, E)</text>
  <text x="428" y="112" font-size="9">104</text>
  <rect x="620" y="60" width="150" height="36" class="box"/>
  <text x="628" y="82">Layer-1 Intent Nodes</text>
  <text x="628" y="94" font-size="9">105</text>
  <rect x="240" y="140" width="180" height="40" class="box"/>
  <text x="248" y="158">Geometric Curvature Engine</text>
  <text x="248" y="172" font-size="9">106</text>
  <rect x="460" y="140" width="150" height="40" class="box"/>
  <text x="468" y="158">Blueprint Planner</text>
  <text x="468" y="172" font-size="9">108</text>
  <rect x="640" y="140" width="180" height="40" class="box"/>
  <text x="648" y="158">GIV Permission Envelope</text>
  <text x="648" y="172" font-size="9">112</text>
  <rect x="300" y="220" width="170" height="40" class="box"/>
  <text x="308" y="238">Git Worktree Sandbox</text>
  <text x="308" y="252" font-size="9">114</text>
  <rect x="520" y="220" width="170" height="40" class="box"/>
  <text x="528" y="238">Filesystem Copy Sandbox</text>
  <text x="528" y="252" font-size="9">116</text>
  <rect x="400" y="300" width="180" height="40" class="box"/>
  <text x="408" y="318">Output Log Parsing</text>
  <text x="408" y="332" font-size="9">118</text>
  <rect x="340" y="380" width="200" height="40" class="box"/>
  <text x="348" y="398">Merge Integrity Harness</text>
  <text x="348" y="412" font-size="9">122</text>
  <rect x="340" y="450" width="200" height="36" class="box"/>
  <text x="348" y="468">Upstream Preflight Gate</text>
  <text x="348" y="480" font-size="9">124</text>
  <line x1="190" y1="88" x2="240" y2="88" class="arrow"/>
  <line x1="370" y1="88" x2="420" y2="88" class="arrow"/>
  <line x1="580" y1="88" x2="620" y2="78" class="arrow"/>
  <line x1="500" y1="106" x2="330" y2="140" class="arrow"/>
  <line x1="500" y1="106" x2="535" y2="140" class="arrow"/>
  <line x1="610" y1="180" x2="710" y2="180" class="arrow"/>
  <line x1="710" y1="180" x2="385" y2="220" class="arrow"/>
  <line x1="710" y1="180" x2="605" y2="220" class="arrow"/>
  <line x1="470" y1="260" x2="490" y2="300" class="arrow"/>
  <line x1="605" y1="260" x2="490" y2="300" class="arrow"/>
  <line x1="490" y1="340" x2="440" y2="380" class="arrow"/>
  <line x1="440" y1="420" x2="440" y2="450" class="arrow"/>
</svg>